<svg width="16" height="16" viewBox="0 0 16 16" fill="none" xmlns="http://www.w3.org/2000/svg">
<path fill-rule="evenodd" clip-rule="evenodd" d="M8.16359 14.6666C7.26025 14.6666 6.37959 14.6566 5.50825 14.6386C4.39358 14.6166 3.62225 13.8939 3.49625 12.7526C3.28625 10.8593 2.92692 6.3966 2.92358 6.35194C2.90092 6.0766 3.10625 5.83527 3.38159 5.81327C3.65292 5.80594 3.89825 5.9966 3.92025 6.27127C3.92359 6.3166 4.28225 10.7639 4.49025 12.6426C4.56159 13.2913 4.91158 13.6259 5.52892 13.6386C7.19559 13.6739 8.89625 13.6759 10.7296 13.6426C11.3856 13.6299 11.7403 13.3019 11.8136 12.6379C12.0203 10.7753 12.3803 6.3166 12.3843 6.27127C12.4063 5.9966 12.6496 5.8046 12.9223 5.81327C13.1976 5.83594 13.4029 6.0766 13.3809 6.35194C13.3769 6.39727 13.0156 10.8713 12.8076 12.7479C12.6783 13.9126 11.9089 14.6213 10.7476 14.6426C9.85892 14.6579 9.00159 14.6666 8.16359 14.6666Z" fill="#D00000"/>
<path fill-rule="evenodd" clip-rule="evenodd" d="M13.8053 4.65955H2.5C2.224 4.65955 2 4.43555 2 4.15955C2 3.88355 2.224 3.65955 2.5 3.65955H13.8053C14.0813 3.65955 14.3053 3.88355 14.3053 4.15955C14.3053 4.43555 14.0813 4.65955 13.8053 4.65955Z" fill="#D00000"/>
<path fill-rule="evenodd" clip-rule="evenodd" d="M11.6264 4.6595C10.8677 4.6595 10.2091 4.11883 10.0597 3.37483L9.89774 2.56416C9.86374 2.44083 9.72307 2.3335 9.56307 2.3335H6.74107C6.58107 2.3335 6.4404 2.44083 6.39973 2.59483L6.2444 3.37483C6.09573 4.11883 5.4364 4.6595 4.67773 4.6595C4.40173 4.6595 4.17773 4.4355 4.17773 4.1595C4.17773 3.8835 4.40173 3.6595 4.67773 3.6595C4.96173 3.6595 5.2084 3.45683 5.2644 3.17816L5.4264 2.3675C5.59107 1.74616 6.12907 1.3335 6.74107 1.3335H9.56307C10.1751 1.3335 10.7131 1.74616 10.8711 2.3375L11.0404 3.17816C11.0957 3.45683 11.3424 3.6595 11.6264 3.6595C11.9024 3.6595 12.1264 3.8835 12.1264 4.1595C12.1264 4.4355 11.9024 4.6595 11.6264 4.6595Z" fill="#D00000"/>
</svg>
