<svg width="16" height="16" viewBox="0 0 16 16" fill="none" xmlns="http://www.w3.org/2000/svg">
<path d="M6.33333 4.66663C6.33333 4.29844 6.63181 3.99996 7 3.99996H11C11.3682 3.99996 11.6667 4.29844 11.6667 4.66663C11.6667 5.03482 11.3682 5.33329 11 5.33329H7C6.63181 5.33329 6.33333 5.03482 6.33333 4.66663Z" fill="#8E6447"/>
<path d="M7 7.33329C6.63181 7.33329 6.33333 7.63177 6.33333 7.99996C6.33333 8.36815 6.63181 8.66663 7 8.66663H11C11.3682 8.66663 11.6667 8.36815 11.6667 7.99996C11.6667 7.63177 11.3682 7.33329 11 7.33329H7Z" fill="#8E6447"/>
<path d="M6.33333 11.3333C6.33333 10.9651 6.63181 10.6666 7 10.6666H11C11.3682 10.6666 11.6667 10.9651 11.6667 11.3333C11.6667 11.7015 11.3682 12 11 12H7C6.63181 12 6.33333 11.7015 6.33333 11.3333Z" fill="#8E6447"/>
<path d="M5.66667 4.66663C5.66667 5.03483 5.3682 5.33329 5 5.33329C4.6318 5.33329 4.33333 5.03483 4.33333 4.66663C4.33333 4.29843 4.6318 3.99996 5 3.99996C5.3682 3.99996 5.66667 4.29843 5.66667 4.66663Z" fill="#8E6447"/>
<path d="M5 8.66663C5.3682 8.66663 5.66667 8.36816 5.66667 7.99996C5.66667 7.63176 5.3682 7.33329 5 7.33329C4.6318 7.33329 4.33333 7.63176 4.33333 7.99996C4.33333 8.36816 4.6318 8.66663 5 8.66663Z" fill="#8E6447"/>
<path d="M5.66667 11.3333C5.66667 11.7015 5.3682 12 5 12C4.6318 12 4.33333 11.7015 4.33333 11.3333C4.33333 10.9651 4.6318 10.6666 5 10.6666C5.3682 10.6666 5.66667 10.9651 5.66667 11.3333Z" fill="#8E6447"/>
<path fill-rule="evenodd" clip-rule="evenodd" d="M2 1.99996C2 1.26358 2.59695 0.666626 3.33333 0.666626H12.6667C13.403 0.666626 14 1.26358 14 1.99996V14C14 14.7363 13.403 15.3333 12.6667 15.3333H3.33333C2.59695 15.3333 2 14.7363 2 14V1.99996ZM12.6667 1.99996H3.33333V14H12.6667V1.99996Z" fill="#8E6447"/>
</svg>
