<svg width="24" height="25" viewBox="0 0 24 25" fill="none" xmlns="http://www.w3.org/2000/svg">
<path d="M10.3961 6.30686C10.5565 6.23718 10.7318 6.20107 10.9093 6.20117H18.3557C19.2375 6.20117 20.0599 6.25355 20.8115 6.36397C21.0218 6.39458 21.231 6.43113 21.4388 6.47356C21.7334 6.5329 22.0246 6.60552 22.3113 6.69117C22.6807 6.80381 23.0248 6.93501 23.3411 7.08864C23.7138 4.91762 23.3385 3.44122 22.0526 2.1038C20.6366 0.631298 18.0792 0 14.8066 0H5.30766C4.63887 0 4.06992 0.444477 3.96511 1.04713L0.0102634 23.9439C-0.0683459 24.3962 0.314646 24.8045 0.815146 24.8045H6.67977L9.73508 7.11719C9.76512 6.94334 9.84098 6.77876 9.95614 6.6376C10.0713 6.49644 10.2223 6.38294 10.3961 6.30686Z" fill="#27346A"/>
</svg>
